<svg xmlns="http://www.w3.org/2000/svg" width="174.681" height="68.32" viewBox="0 0 174.681 68.32">
  <g id="Group_5321" data-name="Group 5321" transform="translate(-69.216 -550.424)">
    <g id="Group_5319" data-name="Group 5319" transform="translate(69.216 566.695)">
      <path id="Path_10961" data-name="Path 10961" d="M95,585.76v50.7H77.908V598.653H69.216V585.76Z" transform="translate(-69.216 -585.76)" fill="#2e2e81"/>
    </g>
    <g id="Group_5320" data-name="Group 5320" transform="translate(100.76 568.706)">
      <path id="Path_10962" data-name="Path 10962" d="M143.457,612.52a10.492,10.492,0,0,1-4.21-3.924,11.492,11.492,0,0,1,0-11.438,10.494,10.494,0,0,1,4.21-3.923,12.842,12.842,0,0,1,6.036-1.4,13.25,13.25,0,0,1,5.492,1.087,10.2,10.2,0,0,1,3.984,3.139l-4.5,4.014a5.771,5.771,0,0,0-4.617-2.475,4.718,4.718,0,0,0-3.591,1.433,6.131,6.131,0,0,0,0,7.7,4.715,4.715,0,0,0,3.591,1.433,5.769,5.769,0,0,0,4.617-2.475l4.5,4.014a10.2,10.2,0,0,1-3.984,3.138,13.256,13.256,0,0,1-5.492,1.087A12.837,12.837,0,0,1,143.457,612.52Z" transform="translate(-137.723 -591.047)" fill="#63c5b9"/>
      <path id="Path_10963" data-name="Path 10963" d="M199.3,604.2q2.293,1.947,2.294,5.991v8.873h-6.338v-2.173q-1.177,2.475-4.678,2.474a7.457,7.457,0,0,1-3.335-.679,4.784,4.784,0,0,1-2.792-4.451,4.2,4.2,0,0,1,1.871-3.712A10.212,10.212,0,0,1,192,609.256h2.747q-.332-1.931-3.109-1.932a7.8,7.8,0,0,0-2.264.347,6.365,6.365,0,0,0-1.962.95l-2.173-4.5a12.009,12.009,0,0,1,3.425-1.373,16.552,16.552,0,0,1,4-.5Q197.009,602.254,199.3,604.2Zm-5.372,10.668a2.27,2.27,0,0,0,.845-1.177v-1.146h-1.69q-2.082,0-2.083,1.388a1.2,1.2,0,0,0,.438.951,1.765,1.765,0,0,0,1.192.377A2.244,2.244,0,0,0,193.931,614.869Z" transform="translate(-162.937 -596.671)" fill="#63c5b9"/>
      <path id="Path_10964" data-name="Path 10964" d="M226.466,590.128h6.821v22.393h-6.821Z" transform="translate(-185.604 -590.128)" fill="#63c5b9"/>
      <path id="Path_10965" data-name="Path 10965" d="M246.194,590.128h6.82v22.393h-6.82Z" transform="translate(-196.248 -590.128)" fill="#63c5b9"/>
      <path id="Path_10966" data-name="Path 10966" d="M143.457,671.508a10.489,10.489,0,0,1-4.21-3.924,11.491,11.491,0,0,1,0-11.438,10.492,10.492,0,0,1,4.21-3.924,12.842,12.842,0,0,1,6.036-1.4,13.242,13.242,0,0,1,5.492,1.087,10.189,10.189,0,0,1,3.984,3.138l-4.5,4.014a5.771,5.771,0,0,0-4.617-2.475,4.718,4.718,0,0,0-3.591,1.433,6.131,6.131,0,0,0,0,7.7,4.715,4.715,0,0,0,3.591,1.433,5.769,5.769,0,0,0,4.617-2.475l4.5,4.014a10.193,10.193,0,0,1-3.984,3.138,13.248,13.248,0,0,1-5.492,1.087A12.837,12.837,0,0,1,143.457,671.508Z" transform="translate(-137.723 -622.874)" fill="#2e2e81"/>
      <path id="Path_10967" data-name="Path 10967" d="M186.224,649.116h6.821v22.393h-6.821Z" transform="translate(-163.892 -621.955)" fill="#2e2e81"/>
      <path id="Path_10968" data-name="Path 10968" d="M205.576,649.9a3.3,3.3,0,0,1,0-4.98,4.378,4.378,0,0,1,2.973-.981,4.5,4.5,0,0,1,2.987.936,3.005,3.005,0,0,1,1.117,2.414,3.327,3.327,0,0,1-1.117,2.58,4.282,4.282,0,0,1-2.987,1.011A4.377,4.377,0,0,1,205.576,649.9Zm-.437,2.308h6.82v16.508h-6.82Z" transform="translate(-173.722 -619.161)" fill="#2e2e81"/>
      <path id="Path_10969" data-name="Path 10969" d="M228.5,677.267a8.394,8.394,0,0,1-3.47-3.048,8.457,8.457,0,0,1,0-8.858,8.434,8.434,0,0,1,3.47-3.033,11.273,11.273,0,0,1,5.025-1.087,9.778,9.778,0,0,1,5.16,1.3,6.734,6.734,0,0,1,2.958,3.591l-5.282,2.6a3.091,3.091,0,0,0-2.866-2.173,2.647,2.647,0,0,0-2.007.845,3.334,3.334,0,0,0-.8,2.384,3.377,3.377,0,0,0,.8,2.415,2.644,2.644,0,0,0,2.007.845,3.09,3.09,0,0,0,2.866-2.173l5.282,2.6a6.732,6.732,0,0,1-2.958,3.592,9.774,9.774,0,0,1-5.16,1.3A11.278,11.278,0,0,1,228.5,677.267Z" transform="translate(-184.154 -628.497)" fill="#2e2e81"/>
      <path id="Path_10970" data-name="Path 10970" d="M272.255,666.439l-1.086,1.177v3.893h-6.821V649.116h6.821V659.8l4.738-4.8h8.058l-6.821,7.153,7.364,9.356h-8.239Z" transform="translate(-206.043 -621.955)" fill="#2e2e81"/>
    </g>
    <path id="Path_10971" data-name="Path 10971" d="M314.191,568.524a18.1,18.1,0,1,0-8.144,15.114l8.144,2.986-2.807-8.423A18.011,18.011,0,0,0,314.191,568.524Zm-8.114,7.974a2.008,2.008,0,0,1-2,2.013c-.063,0-.126,0-.189-.008a19.9,19.9,0,0,1-8.666-3.077,19.566,19.566,0,0,1-6.026-6.014,19.81,19.81,0,0,1-3.083-8.689,2.006,2.006,0,0,1,1.819-2.177c.06,0,.119-.008.179-.008h3.013a2.008,2.008,0,0,1,2.008,1.724,12.9,12.9,0,0,0,.7,2.816,2,2,0,0,1-.452,2.115l-1.275,1.272a16.051,16.051,0,0,0,6.026,6.014l1.275-1.273a2.011,2.011,0,0,1,2.119-.451,12.894,12.894,0,0,0,2.822.7,2.006,2.006,0,0,1,1.727,2.035Z" transform="translate(-112.644)" fill="#2e2e81"/>
    <path id="Path_10972" data-name="Path 10972" d="M388.065,580.212a18.1,18.1,0,0,0-15.114,28.057l-2.986,8.144,8.423-2.807a18.1,18.1,0,1,0,9.677-33.393Zm10.027,10.354L392.957,607.3a.478.478,0,0,1-.841.144l-1.606-2.189-1.217-1.66a.479.479,0,0,0-.723-.055l-6.361,6.361a.478.478,0,0,1-.676,0l-1.689-1.689-1.688-1.688a.479.479,0,0,1,0-.675l6.36-6.361a.479.479,0,0,0-.055-.723l-3.849-2.823a.478.478,0,0,1,.143-.842l16.74-5.135a.478.478,0,0,1,.6.6Z" transform="translate(-162.268 -16.072)" fill="#63c5b9"/>
    <g id="Group_5321-2" data-name="Group 5321" transform="translate(181.468 605.621)">
      <path id="Path_10973" data-name="Path 10973" d="M313.862,690.772a2.864,2.864,0,0,1-.861-2.145,2.789,2.789,0,0,1,.861-2.121,3.291,3.291,0,0,1,4.335,0,2.789,2.789,0,0,1,.86,2.121,2.864,2.864,0,0,1-.86,2.145,3.225,3.225,0,0,1-4.335,0Z" transform="translate(-313.001 -678.604)" fill="#63c5b9"/>
      <path id="Path_10974" data-name="Path 10974" d="M330.539,682.479a6.38,6.38,0,0,1-2.638-2.317,6.428,6.428,0,0,1,0-6.732,6.408,6.408,0,0,1,2.638-2.305,8.568,8.568,0,0,1,3.819-.826,7.442,7.442,0,0,1,3.922.986,5.121,5.121,0,0,1,2.248,2.73l-4.014,1.973a2.349,2.349,0,0,0-2.179-1.651,2.013,2.013,0,0,0-1.525.642,2.533,2.533,0,0,0-.608,1.812,2.566,2.566,0,0,0,.608,1.835,2.01,2.01,0,0,0,1.525.642,2.348,2.348,0,0,0,2.179-1.651l4.014,1.973a5.117,5.117,0,0,1-2.248,2.729,7.434,7.434,0,0,1-3.922.986A8.574,8.574,0,0,1,330.539,682.479Z" transform="translate(-320.527 -670.299)" fill="#63c5b9"/>
      <path id="Path_10975" data-name="Path 10975" d="M367.723,671.779a5.643,5.643,0,0,1,1.743,4.553v6.744h-4.817v-1.652q-.894,1.882-3.555,1.881a5.669,5.669,0,0,1-2.534-.516,3.635,3.635,0,0,1-2.122-3.383,3.192,3.192,0,0,1,1.422-2.822,7.763,7.763,0,0,1,4.312-.963h2.087q-.252-1.468-2.363-1.468a5.931,5.931,0,0,0-1.72.264,4.829,4.829,0,0,0-1.491.723l-1.652-3.418a9.127,9.127,0,0,1,2.6-1.043,12.554,12.554,0,0,1,3.039-.378A7.6,7.6,0,0,1,367.723,671.779Zm-4.083,8.108a1.727,1.727,0,0,0,.642-.895v-.872H363q-1.583,0-1.583,1.055a.913.913,0,0,0,.332.723,1.339,1.339,0,0,0,.906.287A1.705,1.705,0,0,0,363.64,679.887Z" transform="translate(-336.437 -670.299)" fill="#63c5b9"/>
    </g>
  </g>
</svg>
