<svg version="1.1" id="Layer_1" xmlns="http://www.w3.org/2000/svg" xmlns:xlink="http://www.w3.org/1999/xlink" x="0px" y="0px"
	 width="100%" viewBox="0 0 1024 1024" enable-background="new 0 0 1024 1024" xml:space="preserve">
<path fill="#FFFFFF" opacity="1.000000" stroke="none" 
	d="
M644.000000,1025.000000 
	C429.333344,1025.000000 215.166672,1025.000000 1.000000,1025.000000 
	C1.000000,683.666687 1.000000,342.333344 1.000000,1.000000 
	C342.333344,1.000000 683.666687,1.000000 1025.000000,1.000000 
	C1025.000000,342.333344 1025.000000,683.666687 1025.000000,1025.000000 
	C898.166687,1025.000000 771.333313,1025.000000 644.000000,1025.000000 
M419.060547,244.949341 
	C419.060547,244.949341 419.201447,244.927582 419.002594,244.396439 
	C418.694458,244.193039 418.386292,243.989655 418.103912,243.914948 
	C418.103912,243.914948 418.219727,243.853241 417.952728,243.247345 
	C416.328278,241.739563 414.703827,240.231781 412.956482,238.301926 
	C412.762482,238.045807 412.505157,237.927948 411.851929,237.415680 
	C411.309998,237.151413 410.768066,236.887146 410.347290,236.685394 
	C410.347290,236.685394 410.371490,236.551239 410.107574,236.033310 
	C409.441193,235.626205 408.774811,235.219101 408.082550,234.901749 
	C408.082550,234.901749 408.174927,234.887772 407.869263,234.345856 
	C407.313202,234.104324 406.757172,233.862808 406.226044,233.753586 
	C406.226044,233.753586 406.311005,233.649139 405.964355,233.083252 
	C403.738739,231.920349 401.513153,230.757446 399.215576,229.614426 
	C399.215576,229.614426 399.223877,229.688629 398.900055,229.086578 
	C382.562500,221.300980 365.946655,220.452927 348.308929,227.114410 
	C334.221893,233.028198 323.978180,243.227112 315.708008,256.621277 
	C310.446289,265.448120 308.320862,275.169006 308.295776,285.270630 
	C308.267700,296.590485 310.174286,307.555817 316.545227,317.315765 
	C316.545227,317.315765 316.547577,317.463074 316.731781,318.077911 
	C317.700287,319.489502 318.668762,320.901093 319.749420,322.226501 
	C319.749420,322.226501 319.608002,322.221924 319.698456,322.830963 
	C320.093353,323.281158 320.488251,323.731323 320.894745,324.087341 
	C320.894745,324.087341 320.804810,324.117645 320.985962,324.670532 
	C321.642456,325.328979 322.298950,325.987427 323.530273,327.044586 
	C329.927979,334.052155 337.082886,340.069244 346.131561,344.720398 
	C348.918732,345.659393 351.661987,346.765686 354.500153,347.510406 
	C373.786133,352.570892 391.844971,350.167633 408.044159,338.175293 
	C408.044159,338.175293 408.348633,338.419037 408.968445,338.302338 
	C410.211365,337.214874 411.454285,336.127441 413.065338,334.448364 
	C416.712646,330.633057 420.359955,326.817719 424.302490,322.712738 
	C424.302490,322.712738 424.402679,322.311432 424.298370,322.193451 
	C424.298370,322.193451 424.446289,322.247467 424.944031,321.832611 
	C438.059937,300.243866 439.282684,278.269684 427.059143,255.947479 
	C427.059143,255.947479 427.145447,255.922318 426.990234,255.279663 
	C426.121124,254.081573 425.252014,252.883484 424.199097,251.775803 
	C424.199097,251.775803 424.403198,251.758820 424.325195,251.148712 
	C423.924744,250.703262 423.524292,250.257828 423.111237,249.907593 
	C423.111237,249.907593 423.201904,249.875854 422.988708,249.265778 
	C422.024475,248.125641 421.060272,246.985504 420.063629,245.941864 
	C420.063629,245.941864 420.165253,245.947937 419.966766,245.424591 
	C419.665588,245.218658 419.364380,245.012741 419.060547,244.949341 
M344.056305,711.276428 
	C343.717346,710.981445 343.378387,710.686462 342.888519,709.788025 
	C335.979584,701.509033 328.554962,693.600464 322.281006,684.865417 
	C312.548492,671.315063 303.600128,657.201416 294.141418,642.629395 
	C293.780090,642.046509 293.418793,641.463684 293.039948,640.960876 
	C293.039948,640.960876 293.121887,640.960938 292.976654,640.420959 
	C292.669159,640.222107 292.361694,640.023193 292.058838,639.964905 
	C292.058838,639.964905 292.197296,639.940063 292.055389,639.204163 
	C286.415375,627.071045 280.775360,614.937988 275.092651,602.943542 
	C275.092651,602.943542 275.237457,602.952820 275.140564,602.252625 
	C274.796692,601.446045 274.452820,600.639526 274.080322,599.954102 
	C274.080322,599.954102 274.204773,599.954102 274.113220,599.292969 
	C273.758514,598.803467 273.403839,598.313904 273.042511,597.389587 
	C273.042511,597.389587 272.916473,596.973450 273.056274,596.179016 
	C271.986664,592.357544 270.910767,588.537781 269.848846,584.714172 
	C267.915741,577.754028 265.990967,570.791565 264.078094,563.410217 
	C264.078094,563.410217 263.995789,562.998169 264.258423,562.455322 
	C263.854767,560.913025 263.451080,559.370789 263.067688,557.408752 
	C263.067688,557.408752 262.990540,556.995667 263.302490,556.367188 
	C262.480499,549.932861 261.658508,543.498535 260.953003,536.126404 
	C261.350708,527.777710 261.748413,519.429016 262.782562,510.677063 
	C266.253754,499.803131 269.724945,488.929199 273.077698,478.049103 
	C273.077698,478.049103 273.099915,478.165619 273.710083,477.868225 
	C274.596924,476.319611 275.483795,474.770966 276.233795,473.125458 
	C276.233795,473.125458 276.193909,473.288330 276.758026,473.139282 
	C276.909241,472.783752 277.060486,472.428223 277.090179,472.073975 
	C277.090179,472.073975 277.127625,472.189606 277.671783,471.888214 
	C277.912292,471.333893 278.152802,470.779541 278.266968,470.295013 
	C278.266968,470.295013 278.394745,470.362122 278.934418,470.095215 
	C279.380463,469.423065 279.826538,468.750946 280.692413,467.953491 
	C280.947357,467.761353 281.067749,467.505829 281.590546,466.859924 
	C281.853027,466.314453 282.115509,465.768951 282.224976,465.159027 
	C282.224976,465.159027 282.241760,465.324219 282.831116,465.233795 
	C282.993988,464.884216 283.156860,464.534668 283.157898,464.149750 
	C283.157898,464.149750 283.191010,464.312073 283.767029,464.173279 
	C283.943604,463.833038 284.120178,463.492798 284.159668,463.217010 
	C284.159668,463.217010 284.272003,463.318604 284.866180,463.047699 
	C286.367493,461.502686 287.868805,459.957672 289.353577,458.286865 
	C289.353577,458.286865 289.282990,458.392273 289.893005,458.251770 
	C290.648468,457.533112 291.403931,456.814423 292.070282,456.076172 
	C292.070282,456.076172 292.093018,456.164551 292.660614,455.961792 
	C293.219879,455.412384 293.779114,454.863007 294.208282,454.337067 
	C294.208282,454.337067 294.320465,454.406982 294.717346,454.306793 
	C294.717346,454.306793 295.005524,454.016083 295.636871,453.867096 
	C296.811523,452.941772 297.986145,452.016418 299.637085,450.937256 
	C299.815247,450.661316 299.993378,450.385376 300.057465,450.079742 
	C300.057465,450.079742 300.058472,450.197601 300.723480,450.050262 
	C301.869232,449.400970 303.014984,448.751648 304.047638,448.072937 
	C304.047638,448.072937 304.045135,448.189819 304.659210,448.086975 
	C305.156860,447.754364 305.654480,447.421722 306.044220,447.062988 
	C306.044220,447.062988 306.042084,447.174011 306.656281,447.068146 
	C307.157166,446.743683 307.658051,446.419220 308.049988,446.074707 
	C308.049988,446.074707 308.057770,446.185242 308.807739,446.058289 
	C315.665405,443.736145 322.523041,441.414001 330.142303,439.280914 
	C331.437317,439.132019 332.732361,438.983124 334.900757,438.917419 
	C345.297150,439.139099 355.781525,438.588348 366.069641,439.760376 
	C382.203308,441.598328 396.716888,448.639008 410.969757,456.022461 
	C410.969757,456.022461 410.893280,456.052368 411.281891,456.520264 
	C411.839233,456.747131 412.396606,456.973999 412.944824,457.076416 
	C412.944824,457.076416 412.826080,457.114624 413.200348,457.691101 
	C414.841156,458.574921 416.481934,459.458740 418.451599,460.885834 
	C422.280121,463.389526 426.108643,465.893188 429.969910,468.418304 
	C432.993866,462.549713 435.281036,456.800232 438.669891,451.796997 
	C446.635529,440.036774 454.612274,428.209106 463.620789,417.261414 
	C468.225311,411.665771 475.060242,407.905426 481.513947,403.068359 
	C482.387848,402.404663 483.261749,401.740967 484.050903,401.051971 
	C484.050903,401.051971 484.071960,401.137878 484.711731,400.971924 
	C485.912964,400.105591 487.114227,399.239227 488.157745,398.093140 
	C488.157745,398.093140 488.268799,398.394470 488.977417,398.263031 
	C500.016846,394.137573 511.068878,390.045258 522.083008,385.853333 
	C523.871765,385.172546 525.492432,384.050262 527.082581,383.089752 
	C527.082581,383.089752 527.077271,383.205811 527.604187,383.001099 
	C527.795410,382.686066 527.986572,382.371002 528.069885,382.061371 
	C528.069885,382.061371 528.103699,382.163971 528.729187,381.765839 
	C531.431213,377.190704 532.788025,372.578461 529.088135,367.938934 
	C529.088135,367.938934 529.202515,367.931549 529.009094,367.228455 
	C527.077454,366.126740 525.269165,364.488281 523.193909,364.011475 
	C510.871002,361.180054 498.412659,362.023407 486.291534,364.668365 
	C476.590057,366.785309 467.264618,370.625580 457.927399,373.719971 
	C457.927399,373.719971 457.799622,373.630005 457.071716,373.666107 
	C454.992523,374.741119 452.913361,375.816132 450.927063,376.903839 
	C450.927063,376.903839 450.894287,376.815979 450.221405,376.980103 
	C448.490082,378.006561 446.758759,379.032990 444.355865,380.190491 
	C431.522369,388.862732 421.351501,400.164642 412.851349,412.408691 
	C406.403687,407.823853 400.201233,403.413361 393.581757,398.610901 
	C393.079620,398.360809 392.577515,398.110687 392.048492,397.946564 
	C392.048492,397.946564 392.135101,397.921753 391.724365,397.398560 
	C390.171631,396.555878 388.618866,395.713226 387.044189,394.953918 
	C387.044189,394.953918 387.127625,394.932159 386.749115,394.448151 
	C386.182800,394.229584 385.616516,394.011047 385.053802,393.917511 
	C385.053802,393.917511 385.174103,393.883301 384.777069,393.317841 
	C379.881104,391.153442 374.985138,388.989075 370.065979,386.914093 
	C370.065979,386.914093 370.157745,386.904022 369.861542,386.333252 
	C369.251007,386.167175 368.640472,386.001068 368.037781,385.944611 
	C368.037781,385.944611 368.143890,385.916016 367.772827,385.306732 
	C348.170807,377.030609 327.774780,372.934662 306.466827,373.798859 
	C303.613892,373.914581 300.780640,374.516571 297.155518,374.991943 
	C295.414764,375.390808 293.674011,375.789642 291.046600,376.035614 
	C276.644409,376.253571 264.024689,381.893585 251.949783,388.942963 
	C251.949783,388.942963 251.950943,388.850006 251.386383,388.982269 
	C251.165543,389.264221 250.944702,389.546173 250.894897,389.784241 
	C250.894897,389.784241 250.800003,389.635345 250.147964,389.758484 
	C249.059464,390.484131 247.970947,391.209778 246.962128,391.968170 
	C246.962128,391.968170 246.942032,391.884430 246.341278,392.053894 
	C245.526245,392.684753 244.711212,393.315613 243.970047,393.982758 
	C243.970047,393.982758 243.951553,393.902527 243.364059,394.076630 
	C242.573486,394.712708 241.782913,395.348816 240.343826,396.175018 
	C230.183075,404.272766 221.409897,413.585693 214.700607,425.601593 
	C213.653732,427.593750 212.606857,429.585938 211.565994,431.708679 
	C211.565994,431.708679 211.684479,431.763855 211.089920,432.093048 
	C201.996704,450.047913 198.507309,469.371155 198.328247,489.207947 
	C198.223022,500.864838 199.844299,512.537292 200.671021,524.956482 
	C201.166351,527.646851 201.661682,530.337158 202.053375,533.841187 
	C202.360596,535.457397 202.630173,537.081848 202.980743,538.688599 
	C207.589996,559.814087 214.713928,580.027039 224.970993,599.032043 
	C224.970993,599.032043 224.889618,599.054626 225.011703,599.765625 
	C227.320938,603.881958 229.630173,607.998352 231.970062,612.035828 
	C231.970062,612.035828 231.887726,612.055237 232.021759,612.715332 
	C232.986099,614.191650 233.950424,615.667908 234.934830,617.057007 
	C234.934830,617.057007 234.848434,617.080261 235.003876,617.733276 
	C235.976883,619.200500 236.949905,620.667664 237.947174,622.050049 
	C237.947174,622.050049 237.861557,622.071228 238.003799,622.690430 
	C238.628815,623.520935 239.253830,624.351440 239.891266,625.086914 
	C239.891266,625.086914 239.800262,625.117065 239.971176,625.755310 
	C240.861267,626.944885 241.751358,628.134399 242.804840,629.195374 
	C242.804840,629.195374 242.605927,629.255920 242.720978,629.882080 
	C243.364471,630.693909 244.007965,631.505798 244.752838,632.221313 
	C244.752838,632.221313 244.613892,632.205627 244.699142,632.820251 
	C245.089645,633.277039 245.480164,633.733826 245.883667,634.093323 
	C245.883667,634.093323 245.791077,634.125916 245.981628,634.726196 
	C246.621933,635.536621 247.262253,636.347046 247.923294,637.067993 
	C247.923294,637.067993 247.834610,637.091858 248.043793,637.728699 
	C249.360229,639.486877 250.676666,641.244995 252.166534,643.660034 
	C263.452606,656.810364 274.556030,670.124084 286.105804,683.038513 
	C291.453796,689.018494 297.502441,694.411743 303.525879,699.740479 
	C324.339722,718.153748 346.534454,734.666687 371.571747,748.349365 
	C374.014343,749.626831 376.456940,750.904236 378.929016,752.095581 
	C378.929016,752.095581 378.838379,752.103149 379.248444,752.656677 
	C387.294250,756.616150 395.340088,760.575623 403.385895,764.535034 
	C403.599548,764.143860 403.813202,763.752625 404.026886,763.361389 
	C398.710327,759.485413 393.393768,755.609375 387.945862,751.306702 
	C387.746490,751.047974 387.483948,750.931274 386.803375,750.446106 
	C386.262787,750.180115 385.722168,749.914185 385.265930,749.776306 
	C385.265930,749.776306 385.344543,749.644653 385.070740,749.121826 
	C384.418762,748.682861 383.766785,748.243835 383.088074,747.895935 
	C383.088074,747.895935 383.181763,747.880310 382.890717,747.334839 
	C382.350983,747.086121 381.811218,746.837463 381.191620,746.723083 
	C381.191620,746.723083 381.347168,746.707764 381.214264,746.075745 
	C380.170929,745.284180 379.127594,744.492615 377.968536,743.286377 
	C377.778046,743.036621 377.526001,742.920959 376.881195,742.399536 
	C376.337463,742.137085 375.793732,741.874634 375.167572,741.743042 
	C375.167572,741.743042 375.322205,741.743774 375.269135,741.143738 
	C374.915070,740.986206 374.561005,740.828674 374.166260,740.823364 
	C374.166260,740.823364 374.319702,740.787781 374.199463,740.205383 
	C373.854248,740.034424 373.509003,739.863464 373.130920,739.858398 
	C373.130920,739.858398 373.297760,739.830688 373.138275,739.264343 
	C372.797729,739.086548 372.457153,738.908691 372.146484,738.880127 
	C372.146484,738.880127 372.276489,738.800964 372.013763,738.239746 
	C371.370056,737.730408 370.726349,737.221069 369.793213,736.128052 
	C367.055084,733.734619 364.316956,731.341187 361.202271,728.398315 
	C360.815186,728.204285 360.428070,728.010254 360.062958,727.972107 
	C360.062958,727.972107 360.215240,727.932312 360.035431,727.350891 
	C359.718872,727.104797 359.402283,726.858765 358.807404,726.041687 
	C356.633850,724.003723 354.460297,721.965759 352.011993,719.398804 
	C351.698761,719.160095 351.385559,718.921448 350.996704,718.284302 
	C350.842712,718.023560 350.614532,717.901794 350.031738,717.404297 
	C349.706116,717.204102 349.380463,717.003906 349.067291,716.955200 
	C349.067291,716.955200 349.215027,716.919312 349.015656,716.384644 
	C348.706787,716.180481 348.397949,715.976257 348.077667,715.927307 
	C348.077667,715.927307 348.231781,715.905457 348.032593,715.369141 
	C347.715942,715.171753 347.399261,714.974426 347.072327,714.932373 
	C347.072327,714.932373 347.226562,714.911621 347.030212,714.371948 
	C346.718414,714.169006 346.406647,713.966125 346.087982,713.924744 
	C346.087982,713.924744 346.247040,713.895752 346.059814,713.347656 
	C345.743561,713.147278 345.427277,712.946838 345.099792,712.910706 
	C345.099792,712.910706 345.261536,712.880188 345.078278,712.328979 
	C344.756622,712.133423 344.434967,711.937805 344.038788,711.893433 
	C344.038788,711.893433 344.199066,711.945496 344.056305,711.276428 
M545.781677,787.080627 
	C546.597900,786.957520 547.439697,786.923767 548.226685,786.698425 
	C587.938721,775.327881 620.868225,753.103882 647.705444,722.235840 
	C672.099792,694.177612 684.568604,661.534912 678.954102,623.753845 
	C675.486572,600.420105 662.520386,584.264465 640.055725,576.184021 
	C627.724915,571.748779 615.395325,574.247131 603.132446,576.472900 
	C597.859253,577.430115 592.896179,577.738586 587.554443,576.264832 
	C579.403259,574.015991 571.119507,573.535156 562.472351,574.614807 
	C545.449036,576.740417 532.101196,584.604492 521.531006,597.698730 
	C518.533020,601.412598 515.900879,605.421753 512.826233,608.629089 
	C506.533386,601.417664 500.989410,593.327942 493.785370,587.185181 
	C480.474152,575.834900 464.352966,571.360596 447.154083,574.818115 
	C435.867065,577.087158 425.011353,577.885193 413.926636,574.857300 
	C401.953796,571.586670 390.589661,575.427429 379.954224,579.538879 
	C365.915955,584.965759 356.096863,595.818909 350.987640,610.195374 
	C342.025299,635.413696 345.807739,660.010742 355.550262,684.097717 
	C365.106201,707.723450 380.969666,726.803345 400.124542,743.090332 
	C422.457245,762.079346 446.799011,777.829041 475.573242,785.520325 
	C477.146942,785.940979 478.743164,786.277405 480.328918,786.653015 
	C464.982178,775.917114 450.888062,764.375793 438.910278,750.395996 
	C423.203003,732.063354 409.670868,712.407593 403.682129,688.580505 
	C399.162689,670.599182 399.553955,652.832458 409.087952,636.360901 
	C427.591705,604.392822 468.381012,596.864929 498.293396,619.786926 
	C503.652374,623.893494 508.465942,628.711731 513.580933,633.245361 
	C514.091370,632.152710 514.568726,631.130981 515.663879,629.827515 
	C519.369690,626.821350 523.042419,623.773376 526.786865,620.816223 
	C543.984070,607.234802 563.240479,603.756287 584.300781,609.137207 
	C604.338684,614.256897 624.348816,636.682800 625.811768,656.473877 
	C627.010742,672.693420 625.044983,688.517273 618.425964,703.664795 
	C608.047119,727.417053 592.876831,747.676270 573.685303,764.828796 
	C564.702026,772.857666 554.611084,779.647156 544.870605,787.136841 
	C544.870605,787.136841 544.839050,787.307678 544.839050,787.307678 
	C544.839050,787.307678 544.969360,786.946899 545.781677,787.080627 
M802.314941,600.887512 
	C807.387695,588.648987 812.979980,576.596130 817.431702,564.135742 
	C828.884277,532.079529 832.453918,498.988220 826.901062,465.397400 
	C820.339294,425.703064 798.768738,397.015289 761.016235,381.738403 
	C731.655151,369.857178 701.853882,371.539703 672.134216,380.656097 
	C650.641663,387.248840 631.371155,397.996307 614.106445,412.794373 
	C599.701294,389.095825 577.717407,376.391327 552.152100,367.748108 
	C554.527100,382.714752 549.984924,394.037567 536.246765,401.420654 
	C565.929321,415.638306 583.333496,440.288513 596.596558,468.039001 
	C605.916260,462.611694 614.215149,457.351044 622.890564,452.809784 
	C645.726807,440.855804 670.016907,435.212189 695.680054,439.382782 
	C739.191528,446.454041 761.351257,477.866119 764.863647,517.324219 
	C766.921082,540.437500 763.893738,563.174744 757.189392,585.282043 
	C737.963135,648.679749 700.171448,699.623657 650.462158,742.323242 
	C640.816284,750.608887 630.396118,757.993164 620.954529,765.311584 
	C680.956726,742.069275 760.138489,683.066589 802.314941,600.887512 
M613.256958,238.753906 
	C600.009888,250.697937 592.521729,265.578461 592.041809,283.388947 
	C590.911438,325.339630 626.203430,355.753784 667.788391,349.056274 
	C700.817078,343.736816 725.114197,308.846283 718.778137,275.948029 
	C709.038391,225.376709 650.554993,206.138092 613.256958,238.753906 
M617.216736,557.813965 
	C619.905762,555.334839 622.819519,553.056641 625.246094,550.342834 
	C637.748413,536.360901 638.421936,514.747314 626.986450,499.158997 
	C615.894836,484.039459 595.559326,478.380402 578.879578,486.154266 
	C561.227295,494.381378 551.201477,511.312164 555.339417,531.675476 
	C560.965149,559.359802 591.376892,575.113586 617.216736,557.813965 
M454.225769,557.794861 
	C457.861542,553.959045 462.309692,550.617981 464.997253,546.204712 
	C479.222382,522.846008 469.979095,497.377319 446.562866,486.161743 
	C431.814941,479.097992 416.914520,481.721924 404.843475,492.866272 
	C392.723602,504.055756 388.349609,518.427002 392.594025,534.669861 
	C399.020233,559.262024 429.095520,574.962341 454.225769,557.794861 
z"/>
<path fill="#2EB2E7" opacity="1.000000" stroke="none" 
	d="
M802.170471,601.230835 
	C760.138489,683.066589 680.956726,742.069275 620.954529,765.311584 
	C630.396118,757.993164 640.816284,750.608887 650.462158,742.323242 
	C700.171448,699.623657 737.963135,648.679749 757.189392,585.282043 
	C763.893738,563.174744 766.921082,540.437500 764.863647,517.324219 
	C761.351257,477.866119 739.191528,446.454041 695.680054,439.382782 
	C670.016907,435.212189 645.726807,440.855804 622.890564,452.809784 
	C614.215149,457.351044 605.916260,462.611694 596.596558,468.039001 
	C583.333496,440.288513 565.929321,415.638306 536.246765,401.420654 
	C549.984924,394.037567 554.527100,382.714752 552.152100,367.748108 
	C577.717407,376.391327 599.701294,389.095825 614.106445,412.794373 
	C631.371155,397.996307 650.641663,387.248840 672.134216,380.656097 
	C701.853882,371.539703 731.655151,369.857178 761.016235,381.738403 
	C798.768738,397.015289 820.339294,425.703064 826.901062,465.397400 
	C832.453918,498.988220 828.884277,532.079529 817.431702,564.135742 
	C812.979980,576.596130 807.387695,588.648987 802.170471,601.230835 
z"/>
<path fill="#F95834" opacity="1.000000" stroke="none" 
	d="
M299.160767,451.091064 
	C297.986145,452.016418 296.811523,452.941772 295.208313,453.759369 
	C294.626648,453.903412 294.473541,454.155212 294.320465,454.406982 
	C294.320465,454.406982 294.208282,454.337067 293.909210,454.247589 
	C293.104431,454.826904 292.598724,455.495728 292.093018,456.164551 
	C292.093018,456.164551 292.070282,456.076172 291.757385,456.069519 
	C290.723969,456.839355 290.003448,457.615784 289.282959,458.392273 
	C289.282990,458.392273 289.353577,458.286865 288.995209,458.228577 
	C287.181915,459.886383 285.726959,461.602509 284.272003,463.318604 
	C284.272003,463.318604 284.159668,463.217010 283.927979,463.243958 
	C283.527893,463.617950 283.359436,463.964996 283.191010,464.312073 
	C283.191010,464.312073 283.157898,464.149750 282.933899,464.212341 
	C282.553894,464.624725 282.397827,464.974457 282.241760,465.324219 
	C282.241760,465.324219 282.224976,465.159027 281.959412,465.249084 
	C281.480438,465.955078 281.266998,466.570984 281.053589,467.186920 
	C281.067749,467.505829 280.947357,467.761353 280.108795,468.016174 
	C279.148376,468.839935 278.771545,469.601013 278.394745,470.362122 
	C278.394745,470.362122 278.266968,470.295013 277.986328,470.315063 
	C277.513000,470.953278 277.320312,471.571442 277.127625,472.189606 
	C277.127625,472.189606 277.090179,472.073975 276.868103,472.161926 
	C276.495331,472.596008 276.344635,472.942169 276.193909,473.288330 
	C276.193909,473.288330 276.233795,473.125458 275.934143,473.200562 
	C274.789612,474.905640 273.944763,476.535645 273.099915,478.165619 
	C273.099915,478.165619 273.077698,478.049103 272.792236,478.152435 
	C269.649872,484.990143 266.438599,491.603058 264.072937,498.505798 
	C262.719940,502.453705 262.742767,506.873138 262.146149,511.080292 
	C261.748413,519.429016 261.350708,527.777710 260.635376,536.874329 
	C261.208710,544.080078 262.099609,550.537842 262.990540,556.995667 
	C262.990540,556.995667 263.067688,557.408752 263.035645,558.019653 
	C263.334351,560.086365 263.665070,561.542297 263.995789,562.998169 
	C263.995789,562.998169 264.078094,563.410217 263.917847,563.988892 
	C263.528564,565.527649 262.876099,566.624329 263.134949,567.427185 
	C266.318085,577.300903 269.634521,587.131592 272.916473,596.973450 
	C272.916473,596.973450 273.042511,597.389587 273.044189,597.943665 
	C273.432190,598.983215 273.818481,599.468628 274.204773,599.954102 
	C274.204773,599.954102 274.080322,599.954102 274.056519,600.264038 
	C274.434265,601.366882 274.835876,602.159851 275.237488,602.952820 
	C275.237457,602.952820 275.092651,602.943542 275.063110,603.276367 
	C280.209381,615.375366 285.373291,627.146729 290.602783,638.888916 
	C290.820984,639.378845 291.651855,639.595886 292.197296,639.940063 
	C292.197296,639.940063 292.058838,639.964905 292.140991,640.162109 
	C292.522736,640.559814 292.822327,640.760376 293.121887,640.960938 
	C293.121887,640.960938 293.039948,640.960876 293.071381,641.283447 
	C293.508301,642.179504 293.913818,642.753052 294.319336,643.326599 
	C303.600128,657.201416 312.548492,671.315063 322.281006,684.865417 
	C328.554962,693.600464 335.979584,701.509033 343.049866,710.424683 
	C343.540527,711.356079 343.869781,711.650818 344.199036,711.945496 
	C344.199066,711.945496 344.038788,711.893433 344.147217,712.109192 
	C344.590942,712.510010 344.926239,712.695129 345.261536,712.880188 
	C345.261536,712.880188 345.099792,712.910706 345.176331,713.118469 
	C345.584290,713.516052 345.915680,713.705933 346.247040,713.895752 
	C346.247040,713.895752 346.087982,713.924744 346.168243,714.129028 
	C346.574524,714.526123 346.900543,714.718872 347.226562,714.911621 
	C347.226562,714.911621 347.072327,714.932373 347.158936,715.137878 
	C347.574310,715.530762 347.903046,715.718079 348.231781,715.905457 
	C348.231781,715.905457 348.077667,715.927307 348.160065,716.133423 
	C348.566650,716.532776 348.890839,716.726074 349.215027,716.919312 
	C349.215027,716.919312 349.067291,716.955200 349.168335,717.162659 
	C349.616974,717.553101 349.964569,717.736084 350.312164,717.919128 
	C350.614532,717.901794 350.842712,718.023560 351.133789,718.778076 
	C351.609528,719.490479 351.948120,719.709167 352.286743,719.927856 
	C354.460297,721.965759 356.633850,724.003723 359.025116,726.629944 
	C359.566956,727.456238 359.891113,727.694275 360.215240,727.932312 
	C360.215240,727.932312 360.062958,727.972107 360.204041,728.197021 
	C360.756348,728.597290 361.167603,728.772522 361.578857,728.947754 
	C364.316956,731.341187 367.055084,733.734619 369.935852,736.789734 
	C370.811188,737.901245 371.543823,738.351135 372.276489,738.800964 
	C372.276489,738.800964 372.146484,738.880127 372.205505,739.099060 
	C372.608948,739.488892 372.953369,739.659790 373.297760,739.830688 
	C373.297760,739.830688 373.130920,739.858398 373.202393,740.077576 
	C373.622467,740.460449 373.971100,740.624084 374.319702,740.787781 
	C374.319702,740.787781 374.166260,740.823364 374.221741,741.053406 
	C374.625580,741.436890 374.973907,741.590332 375.322205,741.743774 
	C375.322205,741.743774 375.167572,741.743042 375.259155,742.023010 
	C375.971283,742.515137 376.591827,742.727234 377.212402,742.939392 
	C377.526001,742.920959 377.778046,743.036621 378.020599,743.851929 
	C379.164154,745.180908 380.255646,745.944336 381.347168,746.707764 
	C381.347168,746.707764 381.191620,746.723083 381.267578,747.001343 
	C381.956299,747.479797 382.569031,747.680054 383.181763,747.880310 
	C383.181763,747.880310 383.088074,747.895935 383.095459,748.217651 
	C383.850098,748.907776 384.597321,749.276184 385.344543,749.644653 
	C385.344543,749.644653 385.265930,749.776306 385.297424,750.045654 
	C385.938690,750.528931 386.548492,750.742737 387.158264,750.956604 
	C387.483948,750.931274 387.746490,751.047974 387.969971,751.891968 
	C388.044739,755.397034 386.534271,754.617310 384.815552,753.945312 
	C382.879150,753.188110 380.835419,752.705322 378.838379,752.103149 
	C378.838379,752.103149 378.929016,752.095581 378.924805,751.779175 
	C376.287201,750.293518 373.653809,749.124329 371.020386,747.955078 
	C346.534454,734.666687 324.339722,718.153748 303.525879,699.740479 
	C297.502441,694.411743 291.453796,689.018494 286.105804,683.038513 
	C274.556030,670.124084 263.452606,656.810364 252.299271,643.142578 
	C250.899551,640.780701 249.367081,638.936279 247.834610,637.091858 
	C247.834610,637.091858 247.923294,637.067993 247.945892,636.731384 
	C247.242676,635.638489 246.516876,634.882202 245.791077,634.125916 
	C245.791077,634.125916 245.883667,634.093323 245.906738,633.795166 
	C245.491196,633.066589 245.052551,632.636108 244.613892,632.205627 
	C244.613892,632.205627 244.752838,632.221313 244.804062,631.908691 
	C244.105499,630.815979 243.355713,630.035950 242.605927,629.255920 
	C242.605927,629.255920 242.804840,629.195374 242.825821,628.885986 
	C241.831284,627.423401 240.815781,626.270203 239.800262,625.117065 
	C239.800262,625.117065 239.891266,625.086914 239.925537,624.755371 
	C239.260376,623.639648 238.560959,622.855469 237.861557,622.071228 
	C237.861557,622.071228 237.947174,622.050049 237.955505,621.709106 
	C236.925354,619.938843 235.886902,618.509521 234.848450,617.080261 
	C234.848434,617.080261 234.934830,617.057007 234.948685,616.717773 
	C233.937607,614.937439 232.912674,613.496338 231.887726,612.055237 
	C231.887726,612.055237 231.970062,612.035828 231.966125,611.687744 
	C229.604675,607.244629 227.247147,603.149597 224.889618,599.054626 
	C224.889618,599.054626 224.970993,599.032043 224.970139,598.660400 
	C224.735504,596.842590 224.860977,595.207397 224.214050,593.978821 
	C214.489136,575.509766 207.968292,555.950989 203.951508,535.506531 
	C203.772949,534.597778 202.773880,533.850159 202.157013,533.027527 
	C201.661682,530.337158 201.166351,527.646851 200.981628,524.366333 
	C200.861969,515.050537 199.859467,506.305969 200.146820,497.604004 
	C200.503006,486.816742 201.550919,476.012787 203.024353,465.315826 
	C203.996307,458.259460 206.165237,451.358551 207.950104,444.427124 
	C209.046875,440.167938 210.429977,435.982452 211.684479,431.763855 
	C211.684479,431.763855 211.565994,431.708679 211.934494,431.751404 
	C213.226257,429.540039 214.149521,427.285980 215.072784,425.031952 
	C221.409897,413.585693 230.183075,404.272766 240.851257,396.296936 
	C242.222992,395.580109 243.087280,394.741333 243.951553,393.902527 
	C243.951553,393.902527 243.970047,393.982758 244.304871,393.973694 
	C245.407120,393.271210 246.174576,392.577820 246.942032,391.884430 
	C246.942032,391.884430 246.962128,391.968170 247.295471,391.970642 
	C248.685883,391.193878 249.742935,390.414612 250.799988,389.635345 
	C250.800003,389.635345 250.894897,389.784241 251.098602,389.768036 
	C251.518509,389.451233 251.734726,389.150604 251.950943,388.850006 
	C251.950943,388.850006 251.949783,388.942963 252.294739,388.955383 
	C265.737579,384.708069 278.835419,380.448303 291.933289,376.188538 
	C293.674011,375.789642 295.414764,375.390808 297.793488,375.236542 
	C307.784912,375.660858 317.229309,375.095795 326.466888,376.224091 
	C336.226929,377.416229 345.807892,380.143494 355.430664,382.358490 
	C359.714386,383.344513 363.908905,384.718262 368.143890,385.916016 
	C368.143890,385.916016 368.037781,385.944611 368.174194,386.189514 
	C368.926300,386.590942 369.542023,386.747498 370.157745,386.904022 
	C370.157745,386.904022 370.065979,386.914093 370.090393,387.240662 
	C375.134552,389.672577 380.154327,391.777954 385.174103,393.883301 
	C385.174103,393.883301 385.053802,393.917511 385.174561,394.160889 
	C385.906067,394.580231 386.516846,394.756195 387.127625,394.932129 
	C387.127625,394.932159 387.044189,394.953918 387.061371,395.279999 
	C388.764069,396.377960 390.449585,397.149872 392.135101,397.921753 
	C392.135101,397.921753 392.048492,397.946564 392.041321,398.211792 
	C392.688995,398.652313 393.343872,398.827606 393.998779,399.002869 
	C400.201233,403.413361 406.403687,407.823853 412.851349,412.408691 
	C421.351501,400.164642 431.522369,388.862732 444.883850,380.382080 
	C447.239349,379.321106 449.066803,378.068542 450.894287,376.815979 
	C450.894287,376.815979 450.927063,376.903839 451.265808,376.937256 
	C453.669617,375.857147 455.734619,374.743591 457.799622,373.630005 
	C457.799622,373.630005 457.927399,373.719971 458.241943,373.814880 
	C470.931366,369.621948 483.506134,366.290680 496.587158,364.838165 
	C507.729095,363.600983 518.709717,362.867371 529.202515,367.931549 
	C529.202515,367.931549 529.088135,367.938934 529.054932,368.299316 
	C528.715698,373.161133 528.409729,377.662567 528.103699,382.163971 
	C528.103699,382.163971 528.069885,382.061371 527.849609,382.148102 
	C527.445312,382.558472 527.261292,382.882141 527.077271,383.205811 
	C527.077271,383.205811 527.082581,383.089752 526.726562,383.058655 
	C514.925232,387.011414 503.455353,390.927795 492.064423,395.061676 
	C490.590210,395.596710 489.524017,397.255981 488.268799,398.394470 
	C488.268799,398.394470 488.157745,398.093140 487.867126,398.125244 
	C486.408325,399.150879 485.240143,400.144379 484.071960,401.137878 
	C484.071960,401.137878 484.050903,401.051971 483.703247,401.045349 
	C482.532745,401.797668 481.709930,402.556610 480.887085,403.315552 
	C475.060242,407.905426 468.225311,411.665771 463.620789,417.261414 
	C454.612274,428.209106 446.635529,440.036774 438.669891,451.796997 
	C435.281036,456.800232 432.993866,462.549713 429.969910,468.418304 
	C426.108643,465.893188 422.280121,463.389526 418.230835,460.225708 
	C416.282074,458.748596 414.554077,457.931610 412.826080,457.114624 
	C412.826080,457.114624 412.944824,457.076416 412.824890,456.837128 
	C412.101074,456.416016 411.497192,456.234192 410.893280,456.052368 
	C410.893280,456.052368 410.969757,456.022461 410.945618,455.706177 
	C403.097076,451.295319 395.629150,446.161530 387.371826,443.329102 
	C371.641571,437.933319 355.210846,435.781769 338.501068,437.043060 
	C336.973480,437.158386 335.516907,438.214813 334.027374,438.834229 
	C332.732361,438.983124 331.437317,439.132019 329.305481,439.152954 
	C321.044373,439.642426 313.731506,440.577637 308.057770,446.185242 
	C308.057770,446.185242 308.049988,446.074707 307.770813,446.076965 
	C307.008484,446.444183 306.525299,446.809113 306.042084,447.174011 
	C306.042084,447.174011 306.044220,447.062988 305.765076,447.069641 
	C305.005646,447.447449 304.525391,447.818665 304.045166,448.189819 
	C304.045135,448.189819 304.047638,448.072937 303.731689,448.055969 
	C302.296661,448.758575 301.177582,449.478088 300.058472,450.197601 
	C300.058472,450.197601 300.057465,450.079742 299.852966,450.063538 
	C299.485931,450.395264 299.323364,450.743164 299.160767,451.091064 
z"/>
<path fill="#2EB2E7" opacity="1.000000" stroke="none" 
	d="
M613.521179,238.518280 
	C650.554993,206.138092 709.038391,225.376709 718.778137,275.948029 
	C725.114197,308.846283 700.817078,343.736816 667.788391,349.056274 
	C626.203430,355.753784 590.911438,325.339630 592.041809,283.388947 
	C592.521729,265.578461 600.009888,250.697937 613.521179,238.518280 
z"/>
<path fill="#9CCE43" opacity="1.000000" stroke="none" 
	d="
M515.046082,630.109253 
	C514.568726,631.130981 514.091370,632.152710 513.580933,633.245361 
	C508.465942,628.711731 503.652374,623.893494 498.293396,619.786926 
	C468.381012,596.864929 427.591705,604.392822 409.087952,636.360901 
	C399.553955,652.832458 399.162689,670.599182 403.682129,688.580505 
	C409.670868,712.407593 423.203003,732.063354 438.910278,750.395996 
	C450.888062,764.375793 464.982178,775.917114 480.328918,786.653015 
	C478.743164,786.277405 477.146942,785.940979 475.573242,785.520325 
	C446.799011,777.829041 422.457245,762.079346 400.124542,743.090332 
	C380.969666,726.803345 365.106201,707.723450 355.550262,684.097717 
	C345.807739,660.010742 342.025299,635.413696 350.987640,610.195374 
	C356.096863,595.818909 365.915955,584.965759 379.954224,579.538879 
	C390.589661,575.427429 401.953796,571.586670 413.926636,574.857300 
	C425.011353,577.885193 435.867065,577.087158 447.154083,574.818115 
	C464.352966,571.360596 480.474152,575.834900 493.785370,587.185181 
	C500.989410,593.327942 506.533386,601.417664 512.993591,609.332642 
	C513.521362,615.361267 513.846680,620.689148 514.266113,626.009644 
	C514.374756,627.388123 514.778076,628.743347 515.046082,630.109253 
z"/>
<path fill="#F6BF40" opacity="1.000000" stroke="none" 
	d="
M515.354980,629.968384 
	C514.778076,628.743347 514.374756,627.388123 514.266113,626.009644 
	C513.846680,620.689148 513.521362,615.361267 513.130981,609.665833 
	C515.900879,605.421753 518.533020,601.412598 521.531006,597.698730 
	C532.101196,584.604492 545.449036,576.740417 562.472351,574.614807 
	C571.119507,573.535156 579.403259,574.015991 587.554443,576.264832 
	C592.896179,577.738586 597.859253,577.430115 603.132446,576.472900 
	C615.395325,574.247131 627.724915,571.748779 640.055725,576.184021 
	C662.520386,584.264465 675.486572,600.420105 678.954102,623.753845 
	C684.568604,661.534912 672.099792,694.177612 647.705444,722.235840 
	C620.868225,753.103882 587.938721,775.327881 548.226685,786.698425 
	C547.439697,786.923767 546.597900,786.957520 545.385498,787.030518 
	C544.989319,786.980408 545.022156,786.998352 545.022156,786.998352 
	C554.611084,779.647156 564.702026,772.857666 573.685303,764.828796 
	C592.876831,747.676270 608.047119,727.417053 618.425964,703.664795 
	C625.044983,688.517273 627.010742,672.693420 625.811768,656.473877 
	C624.348816,636.682800 604.338684,614.256897 584.300781,609.137207 
	C563.240479,603.756287 543.984070,607.234802 526.786865,620.816223 
	C523.042419,623.773376 519.369690,626.821350 515.354980,629.968384 
z"/>
<path fill="#F95834" opacity="1.000000" stroke="none" 
	d="
M412.184509,237.948349 
	C412.505157,237.927948 412.762482,238.045807 413.001770,238.880157 
	C414.771271,240.923340 416.495514,242.388290 418.219727,243.853241 
	C418.219727,243.853241 418.103912,243.914948 418.171143,244.130966 
	C418.559418,244.540512 418.880432,244.734039 419.201447,244.927582 
	C419.201447,244.927582 419.060547,244.949341 419.147949,245.150482 
	C419.545349,245.550415 419.855286,245.749176 420.165253,245.947937 
	C420.165253,245.947937 420.063629,245.941864 420.041473,246.276672 
	C421.080170,247.699600 422.141052,248.787720 423.201904,249.875854 
	C423.201904,249.875854 423.111237,249.907593 423.092773,250.206360 
	C423.517273,250.923004 423.960236,251.340912 424.403198,251.758820 
	C424.403198,251.758820 424.199097,251.775803 424.178528,252.098816 
	C425.153778,253.588654 426.149597,254.755493 427.145447,255.922318 
	C427.145447,255.922318 427.059143,255.947479 427.045990,256.303223 
	C427.726990,258.853333 428.535645,261.019012 429.093811,263.247467 
	C430.771423,269.945831 433.235657,276.598663 433.774139,283.397461 
	C434.718079,295.315491 432.118286,306.727936 425.697510,317.097443 
	C424.813538,318.524994 424.840881,320.516846 424.446289,322.247467 
	C424.446289,322.247467 424.298370,322.193451 424.131104,322.204956 
	C423.828827,322.263580 423.693848,322.310669 423.558838,322.357758 
	C423.708313,322.572632 423.857788,322.787506 424.007263,323.002380 
	C420.359955,326.817719 416.712646,330.633057 412.539429,334.743408 
	C410.791901,336.165283 409.570251,337.292175 408.348633,338.419037 
	C408.348633,338.419037 408.044159,338.175293 407.813477,338.179626 
	C392.247711,346.271179 376.114563,350.015533 358.794983,346.948792 
	C354.425598,346.175110 350.121552,345.032318 345.787476,344.059143 
	C337.082886,340.069244 329.927979,334.052155 323.237000,326.506775 
	C322.230774,325.351868 321.517792,324.734741 320.804810,324.117645 
	C320.804810,324.117645 320.894745,324.087341 320.909485,323.788239 
	C320.485474,323.066742 320.046753,322.644318 319.608002,322.221924 
	C319.608002,322.221924 319.749420,322.226501 319.817444,321.878571 
	C318.772827,320.174774 317.660187,318.818939 316.547577,317.463074 
	C316.547577,317.463074 316.545227,317.315765 316.726898,316.876465 
	C315.361420,311.467255 313.324097,306.590210 312.361206,301.509552 
	C309.727173,287.610992 308.828705,273.748810 315.560059,260.498383 
	C316.196381,259.245789 315.921570,257.530334 316.069763,256.029755 
	C323.978180,243.227112 334.221893,233.028198 348.905884,227.378510 
	C352.235077,227.254150 355.101166,227.266052 357.675568,226.405365 
	C366.985535,223.292862 376.128937,223.277649 385.453278,226.453934 
	C389.895325,227.967087 394.624664,228.636841 399.223877,229.688629 
	C399.223877,229.688629 399.215576,229.614426 399.254089,229.977692 
	C401.632080,231.443695 403.971558,232.546417 406.311005,233.649139 
	C406.311005,233.649139 406.226044,233.753586 406.278107,234.026825 
	C406.945099,234.495972 407.559998,234.691864 408.174927,234.887772 
	C408.174927,234.887772 408.082550,234.901749 408.091919,235.226273 
	C408.858032,235.884277 409.614777,236.217758 410.371490,236.551239 
	C410.371490,236.551239 410.347290,236.685394 410.345337,236.994415 
	C410.957062,237.518417 411.570801,237.733383 412.184509,237.948349 
z"/>
<path fill="#F6BF40" opacity="1.000000" stroke="none" 
	d="
M616.902405,557.995056 
	C591.376892,575.113586 560.965149,559.359802 555.339417,531.675476 
	C551.201477,511.312164 561.227295,494.381378 578.879578,486.154266 
	C595.559326,478.380402 615.894836,484.039459 626.986450,499.158997 
	C638.421936,514.747314 637.748413,536.360901 625.246094,550.342834 
	C622.819519,553.056641 619.905762,555.334839 616.902405,557.995056 
z"/>
<path fill="#9CCE43" opacity="1.000000" stroke="none" 
	d="
M453.919006,557.989014 
	C429.095520,574.962341 399.020233,559.262024 392.594025,534.669861 
	C388.349609,518.427002 392.723602,504.055756 404.843475,492.866272 
	C416.914520,481.721924 431.814941,479.097992 446.562866,486.161743 
	C469.979095,497.377319 479.222382,522.846008 464.997253,546.204712 
	C462.309692,550.617981 457.861542,553.959045 453.919006,557.989014 
z"/>
<path fill="#F73C19" opacity="1.000000" stroke="none" 
	d="
M211.387207,431.928467 
	C210.429977,435.982452 209.046875,440.167938 207.950104,444.427124 
	C206.165237,451.358551 203.996307,458.259460 203.024353,465.315826 
	C201.550919,476.012787 200.503006,486.816742 200.146820,497.604004 
	C199.859467,506.305969 200.861969,515.050537 200.990631,523.989502 
	C199.844299,512.537292 198.223022,500.864838 198.328247,489.207947 
	C198.507309,469.371155 201.996704,450.047913 211.387207,431.928467 
z"/>
<path fill="#F73C19" opacity="1.000000" stroke="none" 
	d="
M315.888885,256.325500 
	C315.921570,257.530334 316.196381,259.245789 315.560059,260.498383 
	C308.828705,273.748810 309.727173,287.610992 312.361206,301.509552 
	C313.324097,306.590210 315.361420,311.467255 316.789856,316.838226 
	C310.174286,307.555817 308.267700,296.590485 308.295776,285.270630 
	C308.320862,275.169006 310.446289,265.448120 315.888885,256.325500 
z"/>
<path fill="#F73C19" opacity="1.000000" stroke="none" 
	d="
M334.464050,438.875824 
	C335.516907,438.214813 336.973480,437.158386 338.501068,437.043060 
	C355.210846,435.781769 371.641571,437.933319 387.371826,443.329102 
	C395.629150,446.161530 403.097076,451.295319 410.935547,455.745972 
	C396.716888,448.639008 382.203308,441.598328 366.069641,439.760376 
	C355.781525,438.588348 345.297150,439.139099 334.464050,438.875824 
z"/>
<path fill="#F73C19" opacity="1.000000" stroke="none" 
	d="
M345.959534,344.389771 
	C350.121552,345.032318 354.425598,346.175110 358.794983,346.948792 
	C376.114563,350.015533 392.247711,346.271179 407.951782,338.317108 
	C391.844971,350.167633 373.786133,352.570892 354.500153,347.510406 
	C351.661987,346.765686 348.918732,345.659393 345.959534,344.389771 
z"/>
<path fill="#F73C19" opacity="1.000000" stroke="none" 
	d="
M529.105835,367.580017 
	C518.709717,362.867371 507.729095,363.600983 496.587158,364.838165 
	C483.506134,366.290680 470.931366,369.621948 458.164368,373.805420 
	C467.264618,370.625580 476.590057,366.785309 486.291534,364.668365 
	C498.412659,362.023407 510.871002,361.180054 523.193909,364.011475 
	C525.269165,364.488281 527.077454,366.126740 529.105835,367.580017 
z"/>
<path fill="#F73C19" opacity="1.000000" stroke="none" 
	d="
M367.958374,385.611389 
	C363.908905,384.718262 359.714386,383.344513 355.430664,382.358490 
	C345.807892,380.143494 336.226929,377.416229 326.466888,376.224091 
	C317.229309,375.095795 307.784912,375.660858 298.184875,375.187256 
	C300.780640,374.516571 303.613892,373.914581 306.466827,373.798859 
	C327.774780,372.934662 348.170807,377.030609 367.958374,385.611389 
z"/>
<path fill="#F73C19" opacity="1.000000" stroke="none" 
	d="
M424.695160,322.040039 
	C424.840881,320.516846 424.813538,318.524994 425.697510,317.097443 
	C432.118286,306.727936 434.718079,295.315491 433.774139,283.397461 
	C433.235657,276.598663 430.771423,269.945831 429.093811,263.247467 
	C428.535645,261.019012 427.726990,258.853333 427.057404,256.259735 
	C439.282684,278.269684 438.059937,300.243866 424.695160,322.040039 
z"/>
<path fill="#F73C19" opacity="1.000000" stroke="none" 
	d="
M202.105194,533.434326 
	C202.773880,533.850159 203.772949,534.597778 203.951508,535.506531 
	C207.968292,555.950989 214.489136,575.509766 224.214050,593.978821 
	C224.860977,595.207397 224.735504,596.842590 224.955383,598.699951 
	C214.713928,580.027039 207.589996,559.814087 202.980743,538.688599 
	C202.630173,537.081848 202.360596,535.457397 202.105194,533.434326 
z"/>
<path fill="#F73C19" opacity="1.000000" stroke="none" 
	d="
M399.061951,229.387604 
	C394.624664,228.636841 389.895325,227.967087 385.453278,226.453934 
	C376.128937,223.277649 366.985535,223.292862 357.675568,226.405365 
	C355.101166,227.266052 352.235077,227.254150 349.266754,227.364319 
	C365.946655,220.452927 382.562500,221.300980 399.061951,229.387604 
z"/>
<path fill="#F73C19" opacity="1.000000" stroke="none" 
	d="
M379.043396,752.379883 
	C380.835419,752.705322 382.879150,753.188110 384.815552,753.945312 
	C386.534271,754.617310 388.044739,755.397034 388.035645,752.105286 
	C393.393768,755.609375 398.710327,759.485413 404.026886,763.361389 
	C403.813202,763.752625 403.599548,764.143860 403.385895,764.535034 
	C395.340088,760.575623 387.294250,756.616150 379.043396,752.379883 
M391.381104,756.480774 
	C391.381104,756.480774 391.517120,756.399658 391.381104,756.480774 
z"/>
<path fill="#F73C19" opacity="1.000000" stroke="none" 
	d="
M272.986389,596.576233 
	C269.634521,587.131592 266.318085,577.300903 263.134949,567.427185 
	C262.876099,566.624329 263.528564,565.527649 263.910156,564.198792 
	C265.990967,570.791565 267.915741,577.754028 269.848846,584.714172 
	C270.910767,588.537781 271.986664,592.357544 272.986389,596.576233 
z"/>
<path fill="#F73C19" opacity="1.000000" stroke="none" 
	d="
M488.623108,398.328735 
	C489.524017,397.255981 490.590210,395.596710 492.064423,395.061676 
	C503.455353,390.927795 514.925232,387.011414 526.780701,383.079834 
	C525.492432,384.050262 523.871765,385.172546 522.083008,385.853333 
	C511.068878,390.045258 500.016846,394.137573 488.623108,398.328735 
z"/>
<path fill="#F73C19" opacity="1.000000" stroke="none" 
	d="
M292.126343,639.572144 
	C291.651855,639.595886 290.820984,639.378845 290.602783,638.888916 
	C285.373291,627.146729 280.209381,615.375366 275.084442,603.207031 
	C280.775360,614.937988 286.415375,627.071045 292.126343,639.572144 
z"/>
<path fill="#F73C19" opacity="1.000000" stroke="none" 
	d="
M291.489929,376.112061 
	C278.835419,380.448303 265.737579,384.708069 252.249939,388.942993 
	C264.024689,381.893585 276.644409,376.253571 291.489929,376.112061 
z"/>
<path fill="#F73C19" opacity="1.000000" stroke="none" 
	d="
M262.464355,510.878662 
	C262.742767,506.873138 262.719940,502.453705 264.072937,498.505798 
	C266.438599,491.603058 269.649872,484.990143 272.851440,478.155518 
	C269.724945,488.929199 266.253754,499.803131 262.464355,510.878662 
z"/>
<path fill="#F73C19" opacity="1.000000" stroke="none" 
	d="
M308.432739,446.121765 
	C313.731506,440.577637 321.044373,439.642426 328.924683,439.058411 
	C322.523041,441.414001 315.665405,443.736145 308.432739,446.121765 
z"/>
<path fill="#F73C19" opacity="1.000000" stroke="none" 
	d="
M263.146515,556.681396 
	C262.099609,550.537842 261.208710,544.080078 260.577148,537.343262 
	C261.658508,543.498535 262.480499,549.932861 263.146515,556.681396 
z"/>
<path fill="#F73C19" opacity="1.000000" stroke="none" 
	d="
M384.975586,393.600586 
	C380.154327,391.777954 375.134552,389.672577 370.101959,387.195953 
	C374.985138,388.989075 379.881104,391.153442 384.975586,393.600586 
z"/>
<path fill="#F73C19" opacity="1.000000" stroke="none" 
	d="
M224.950653,599.410156 
	C227.247147,603.149597 229.604675,607.244629 231.950806,611.727173 
	C229.630173,607.998352 227.320938,603.881958 224.950653,599.410156 
z"/>
<path fill="#F73C19" opacity="1.000000" stroke="none" 
	d="
M528.416443,381.964905 
	C528.409729,377.662567 528.715698,373.161133 529.067871,368.243500 
	C532.788025,372.578461 531.431213,377.190704 528.416443,381.964905 
z"/>
<path fill="#F73C19" opacity="1.000000" stroke="none" 
	d="
M371.296082,748.152222 
	C373.653809,749.124329 376.287201,750.293518 378.910095,751.822205 
	C376.456940,750.904236 374.014343,749.626831 371.296082,748.152222 
z"/>
<path fill="#F73C19" opacity="1.000000" stroke="none" 
	d="
M214.886688,425.316772 
	C214.149521,427.285980 213.226257,429.540039 211.931488,431.686096 
	C212.606857,429.585938 213.653732,427.593750 214.886688,425.316772 
z"/>
<path fill="#F73C19" opacity="1.000000" stroke="none" 
	d="
M418.086243,243.550293 
	C416.495514,242.388290 414.771271,240.923340 413.063232,239.091202 
	C414.703827,240.231781 416.328278,241.739563 418.086243,243.550293 
z"/>
<path fill="#F73C19" opacity="1.000000" stroke="none" 
	d="
M284.569092,463.183167 
	C285.726959,461.602509 287.181915,459.886383 289.003479,458.291443 
	C287.868805,459.957672 286.367493,461.502686 284.569092,463.183167 
z"/>
<path fill="#F73C19" opacity="1.000000" stroke="none" 
	d="
M406.137695,233.366196 
	C403.971558,232.546417 401.632080,231.443695 399.290100,229.967743 
	C401.513153,230.757446 403.738739,231.920349 406.137695,233.366196 
z"/>
<path fill="#F73C19" opacity="1.000000" stroke="none" 
	d="
M247.939209,637.410278 
	C249.367081,638.936279 250.899551,640.780701 252.212555,642.814148 
	C250.676666,641.244995 249.360229,639.486877 247.939209,637.410278 
z"/>
<path fill="#F73C19" opacity="1.000000" stroke="none" 
	d="
M450.557861,376.898041 
	C449.066803,378.068542 447.239349,379.321106 445.219666,380.316559 
	C446.758759,379.032990 448.490082,378.006561 450.557861,376.898041 
z"/>
<path fill="#F73C19" opacity="1.000000" stroke="none" 
	d="
M457.435669,373.648071 
	C455.734619,374.743591 453.669617,375.857147 451.219360,376.930908 
	C452.913361,375.816132 454.992523,374.741119 457.435669,373.648071 
z"/>
<path fill="#F73C19" opacity="1.000000" stroke="none" 
	d="
M316.639679,317.770508 
	C317.660187,318.818939 318.772827,320.174774 319.761353,321.921692 
	C318.668762,320.901093 317.700287,319.489502 316.639679,317.770508 
z"/>
<path fill="#F73C19" opacity="1.000000" stroke="none" 
	d="
M234.926163,617.406738 
	C235.886902,618.509521 236.925354,619.938843 237.943359,621.751465 
	C236.949905,620.667664 235.976883,619.200500 234.926163,617.406738 
z"/>
<path fill="#F73C19" opacity="1.000000" stroke="none" 
	d="
M231.954742,612.385254 
	C232.912674,613.496338 233.937607,614.937439 234.938660,616.761353 
	C233.950424,615.667908 232.986099,614.191650 231.954742,612.385254 
z"/>
<path fill="#F73C19" opacity="1.000000" stroke="none" 
	d="
M413.013214,457.402863 
	C414.554077,457.931610 416.282074,458.748596 418.066406,459.954071 
	C416.481934,459.458740 414.841156,458.574921 413.013214,457.402863 
z"/>
<path fill="#F73C19" opacity="1.000000" stroke="none" 
	d="
M408.658539,338.360687 
	C409.570251,337.292175 410.791901,336.165283 412.355377,335.039215 
	C411.454285,336.127441 410.211365,337.214874 408.658539,338.360687 
z"/>
<path fill="#F73C19" opacity="1.000000" stroke="none" 
	d="
M391.929749,397.660156 
	C390.449585,397.149872 388.764069,396.377960 387.072327,395.238312 
	C388.618866,395.713226 390.171631,396.555878 391.929749,397.660156 
z"/>
<path fill="#F73C19" opacity="1.000000" stroke="none" 
	d="
M484.391846,401.054901 
	C485.240143,400.144379 486.408325,399.150879 487.945984,398.265137 
	C487.114227,399.239227 485.912964,400.105591 484.391846,401.054901 
z"/>
<path fill="#F73C19" opacity="1.000000" stroke="none" 
	d="
M239.885712,625.436157 
	C240.815781,626.270203 241.831284,627.423401 242.744110,628.950256 
	C241.751358,628.134399 240.861267,626.944885 239.885712,625.436157 
z"/>
<path fill="#F73C19" opacity="1.000000" stroke="none" 
	d="
M273.404999,478.016907 
	C273.944763,476.535645 274.789612,474.905640 276.002563,473.249023 
	C275.483795,474.770966 274.596924,476.319611 273.404999,478.016907 
z"/>
<path fill="#F73C19" opacity="1.000000" stroke="none" 
	d="
M423.095306,249.570816 
	C422.141052,248.787720 421.080170,247.699600 420.057678,246.228424 
	C421.060272,246.985504 422.024475,248.125641 423.095306,249.570816 
z"/>
<path fill="#F73C19" opacity="1.000000" stroke="none" 
	d="
M427.067841,255.600983 
	C426.149597,254.755493 425.153778,253.588654 424.270386,252.053619 
	C425.252014,252.883484 426.121124,254.081573 427.067841,255.600983 
z"/>
<path fill="#F73C19" opacity="1.000000" stroke="none" 
	d="
M264.127106,562.726746 
	C263.665070,561.542297 263.334351,560.086365 263.025513,558.229492 
	C263.451080,559.370789 263.854767,560.913025 264.127106,562.726746 
z"/>
<path fill="#F73C19" opacity="1.000000" stroke="none" 
	d="
M300.390991,450.123932 
	C301.177582,449.478088 302.296661,448.758575 303.788239,448.070679 
	C303.014984,448.751648 301.869232,449.400970 300.390991,450.123932 
z"/>
<path fill="#F73C19" opacity="1.000000" stroke="none" 
	d="
M250.473969,389.696899 
	C249.742935,390.414612 248.685883,391.193878 247.255630,391.954285 
	C247.970947,391.209778 249.059464,390.484131 250.473969,389.696899 
z"/>
<path fill="#F73C19" opacity="1.000000" stroke="none" 
	d="
M381.280701,746.391724 
	C380.255646,745.944336 379.164154,745.180908 378.078491,744.059204 
	C379.127594,744.492615 380.170929,745.284180 381.280701,746.391724 
z"/>
<path fill="#F73C19" opacity="1.000000" stroke="none" 
	d="
M243.657806,393.989563 
	C243.087280,394.741333 242.222992,395.580109 241.175507,396.201904 
	C241.782913,395.348816 242.573486,394.712708 243.657806,393.989563 
z"/>
<path fill="#F73C19" opacity="1.000000" stroke="none" 
	d="
M481.200531,403.191956 
	C481.709930,402.556610 482.532745,401.797668 483.745605,401.057983 
	C483.261749,401.740967 482.387848,402.404663 481.200531,403.191956 
z"/>
<path fill="#F73C19" opacity="1.000000" stroke="none" 
	d="
M242.663452,629.568970 
	C243.355713,630.035950 244.105499,630.815979 244.753372,631.956787 
	C244.007965,631.505798 243.364471,630.693909 242.663452,629.568970 
z"/>
<path fill="#F73C19" opacity="1.000000" stroke="none" 
	d="
M246.641663,391.969177 
	C246.174576,392.577820 245.407120,393.271210 244.267929,393.955536 
	C244.711212,393.315613 245.526245,392.684753 246.641663,391.969177 
z"/>
<path fill="#F73C19" opacity="1.000000" stroke="none" 
	d="
M237.932678,622.380859 
	C238.560959,622.855469 239.260376,623.639648 239.919312,624.802917 
	C239.253830,624.351440 238.628815,623.520935 237.932678,622.380859 
z"/>
<path fill="#F73C19" opacity="1.000000" stroke="none" 
	d="
M320.895386,324.394104 
	C321.517792,324.734741 322.230774,325.351868 322.949585,326.307404 
	C322.298950,325.987427 321.642456,325.328979 320.895386,324.394104 
z"/>
<path fill="#F73C19" opacity="1.000000" stroke="none" 
	d="
M245.886353,634.426025 
	C246.516876,634.882202 247.242676,635.638489 247.935532,636.776123 
	C247.262253,636.347046 246.621933,635.536621 245.886353,634.426025 
z"/>
<path fill="#F73C19" opacity="1.000000" stroke="none" 
	d="
M372.145142,738.520386 
	C371.543823,738.351135 370.811188,737.901245 370.080566,737.081543 
	C370.726349,737.221069 371.370056,737.730408 372.145142,738.520386 
z"/>
<path fill="#F73C19" opacity="1.000000" stroke="none" 
	d="
M393.790283,398.806885 
	C393.343872,398.827606 392.688995,398.652313 392.054749,398.168823 
	C392.577515,398.110687 393.079620,398.360809 393.790283,398.806885 
z"/>
<path fill="#F73C19" opacity="1.000000" stroke="none" 
	d="
M278.664581,470.228668 
	C278.771545,469.601013 279.148376,468.839935 279.898895,468.078827 
	C279.826538,468.750946 279.380463,469.423065 278.664581,470.228668 
z"/>
<path fill="#F73C19" opacity="1.000000" stroke="none" 
	d="
M385.207642,749.383240 
	C384.597321,749.276184 383.850098,748.907776 383.108826,748.172058 
	C383.766785,748.243835 384.418762,748.682861 385.207642,749.383240 
z"/>
<path fill="#F73C19" opacity="1.000000" stroke="none" 
	d="
M289.587982,458.322021 
	C290.003448,457.615784 290.723969,456.839355 291.801941,456.079346 
	C291.403931,456.814423 290.648468,457.533112 289.587982,458.322021 
z"/>
<path fill="#F73C19" opacity="1.000000" stroke="none" 
	d="
M292.376831,456.063171 
	C292.598724,455.495728 293.104431,454.826904 293.974243,454.235840 
	C293.779114,454.863007 293.219879,455.412384 292.376831,456.063171 
z"/>
<path fill="#F73C19" opacity="1.000000" stroke="none" 
	d="
M410.239532,236.292267 
	C409.614777,236.217758 408.858032,235.884277 408.104858,235.181396 
	C408.774811,235.219101 409.441193,235.626205 410.239532,236.292267 
z"/>
<path fill="#F73C19" opacity="1.000000" stroke="none" 
	d="
M275.189026,602.602722 
	C274.835876,602.159851 274.434265,601.366882 274.070801,600.203430 
	C274.452820,600.639526 274.796692,601.446045 275.189026,602.602722 
z"/>
<path fill="#F73C19" opacity="1.000000" stroke="none" 
	d="
M244.656525,632.512939 
	C245.052551,632.636108 245.491196,633.066589 245.900253,633.843872 
	C245.480164,633.733826 245.089645,633.277039 244.656525,632.512939 
z"/>
<path fill="#F73C19" opacity="1.000000" stroke="none" 
	d="
M412.018219,237.682007 
	C411.570801,237.733383 410.957062,237.518417 410.284729,236.963165 
	C410.768066,236.887146 411.309998,237.151413 412.018219,237.682007 
z"/>
<path fill="#F73C19" opacity="1.000000" stroke="none" 
	d="
M294.230377,642.978027 
	C293.913818,642.753052 293.508301,642.179504 293.080139,641.243408 
	C293.418793,641.463684 293.780090,642.046509 294.230377,642.978027 
z"/>
<path fill="#F73C19" opacity="1.000000" stroke="none" 
	d="
M377.046814,742.669434 
	C376.591827,742.727234 375.971283,742.515137 375.300354,741.957581 
	C375.793732,741.874634 376.337463,742.137085 377.046814,742.669434 
z"/>
<path fill="#F73C19" opacity="1.000000" stroke="none" 
	d="
M383.036255,747.607544 
	C382.569031,747.680054 381.956299,747.479797 381.307495,746.934204 
	C381.811218,746.837463 382.350983,747.086121 383.036255,747.607544 
z"/>
<path fill="#F73C19" opacity="1.000000" stroke="none" 
	d="
M386.980835,750.701355 
	C386.548492,750.742737 385.938690,750.528931 385.255249,749.981689 
	C385.722168,749.914185 386.262787,750.180115 386.980835,750.701355 
z"/>
<path fill="#F73C19" opacity="1.000000" stroke="none" 
	d="
M408.022095,234.616821 
	C407.559998,234.691864 406.945099,234.495972 406.265625,233.960663 
	C406.757172,233.862808 407.313202,234.104324 408.022095,234.616821 
z"/>
<path fill="#F73C19" opacity="1.000000" stroke="none" 
	d="
M424.364197,251.453766 
	C423.960236,251.340912 423.517273,250.923004 423.099060,250.158752 
	C423.524292,250.257828 423.924744,250.703262 424.364197,251.453766 
z"/>
<path fill="#F73C19" opacity="1.000000" stroke="none" 
	d="
M319.653229,322.526428 
	C320.046753,322.644318 320.485474,323.066742 320.903687,323.835327 
	C320.488251,323.731323 320.093353,323.281158 319.653229,322.526428 
z"/>
<path fill="#F73C19" opacity="1.000000" stroke="none" 
	d="
M274.158997,599.623535 
	C273.818481,599.468628 273.432190,598.983215 273.047485,598.161072 
	C273.403839,598.313904 273.758514,598.803467 274.158997,599.623535 
z"/>
<path fill="#F73C19" opacity="1.000000" stroke="none" 
	d="
M386.938354,394.690125 
	C386.516846,394.756195 385.906067,394.580231 385.172729,394.098389 
	C385.616516,394.011047 386.182800,394.229584 386.938354,394.690125 
z"/>
<path fill="#F73C19" opacity="1.000000" stroke="none" 
	d="
M306.349182,447.121094 
	C306.525299,446.809113 307.008484,446.444183 307.825317,446.086975 
	C307.658051,446.419220 307.157166,446.743683 306.349182,447.121094 
z"/>
<path fill="#F73C19" opacity="1.000000" stroke="none" 
	d="
M370.009644,386.618652 
	C369.542023,386.747498 368.926300,386.590942 368.170258,386.134705 
	C368.640472,386.001068 369.251007,386.167175 370.009644,386.618652 
z"/>
<path fill="#F73C19" opacity="1.000000" stroke="none" 
	d="
M304.352173,448.138428 
	C304.525391,447.818665 305.005646,447.447449 305.819031,447.082703 
	C305.654480,447.421722 305.156860,447.754364 304.352173,448.138428 
z"/>
<path fill="#F73C19" opacity="1.000000" stroke="none" 
	d="
M299.398926,451.014160 
	C299.323364,450.743164 299.485931,450.395264 299.910034,450.078400 
	C299.993378,450.385376 299.815247,450.661316 299.398926,451.014160 
z"/>
<path fill="#F73C19" opacity="1.000000" stroke="none" 
	d="
M277.399719,472.038910 
	C277.320312,471.571442 277.513000,470.953278 278.049500,470.280151 
	C278.152802,470.779541 277.912292,471.333893 277.399719,472.038910 
z"/>
<path fill="#F73C19" opacity="1.000000" stroke="none" 
	d="
M281.322083,467.023438 
	C281.266998,466.570984 281.480438,465.955078 282.035919,465.281311 
	C282.115509,465.768951 281.853027,466.314453 281.322083,467.023438 
z"/>
<path fill="#F73C19" opacity="1.000000" stroke="none" 
	d="
M411.087585,456.286316 
	C411.497192,456.234192 412.101074,456.416016 412.829468,456.899353 
	C412.396606,456.973999 411.839233,456.747131 411.087585,456.286316 
z"/>
<path fill="#F73C19" opacity="1.000000" stroke="none" 
	d="
M360.125336,727.641602 
	C359.891113,727.694275 359.566956,727.456238 359.164276,726.915405 
	C359.402283,726.858765 359.718872,727.104797 360.125336,727.641602 
z"/>
<path fill="#F6BF40" opacity="1.000000" stroke="none" 
	d="
M544.979370,786.963623 
	C544.969360,786.946899 544.839050,787.307678 544.839050,787.307678 
	C544.839050,787.307678 544.870605,787.136841 544.946411,787.067627 
	C545.022156,786.998352 544.989319,786.980408 544.979370,786.963623 
z"/>
<path fill="#F73C19" opacity="1.000000" stroke="none" 
	d="
M361.390564,728.673035 
	C361.167603,728.772522 360.756348,728.597290 360.193024,728.119141 
	C360.428070,728.010254 360.815186,728.204285 361.390564,728.673035 
z"/>
<path fill="#F73C19" opacity="1.000000" stroke="none" 
	d="
M282.536438,465.278992 
	C282.397827,464.974457 282.553894,464.624725 283.014832,464.230042 
	C283.156860,464.534668 282.993988,464.884216 282.536438,465.278992 
z"/>
<path fill="#F73C19" opacity="1.000000" stroke="none" 
	d="
M373.218018,739.547485 
	C372.953369,739.659790 372.608948,739.488892 372.190582,739.024414 
	C372.457153,738.908691 372.797729,739.086548 373.218018,739.547485 
z"/>
<path fill="#F73C19" opacity="1.000000" stroke="none" 
	d="
M374.259583,740.496582 
	C373.971100,740.624084 373.622467,740.460449 373.218811,739.994629 
	C373.509003,739.863464 373.854248,740.034424 374.259583,740.496582 
z"/>
<path fill="#F73C19" opacity="1.000000" stroke="none" 
	d="
M375.295654,741.443726 
	C374.973907,741.590332 374.625580,741.436890 374.242065,740.977295 
	C374.561005,740.828674 374.915070,740.986206 375.295654,741.443726 
z"/>
<path fill="#F73C19" opacity="1.000000" stroke="none" 
	d="
M283.479004,464.242676 
	C283.359436,463.964996 283.527893,463.617950 283.996521,463.211731 
	C284.120178,463.492798 283.943604,463.833038 283.479004,464.242676 
z"/>
<path fill="#F73C19" opacity="1.000000" stroke="none" 
	d="
M294.518921,454.356873 
	C294.473541,454.155212 294.626648,453.903412 294.892639,453.833862 
	C295.005524,454.016083 294.717346,454.306793 294.518921,454.356873 
z"/>
<path fill="#F73C19" opacity="1.000000" stroke="none" 
	d="
M352.149353,719.663330 
	C351.948120,719.709167 351.609528,719.490479 351.171631,718.977295 
	C351.385559,718.921448 351.698761,719.160095 352.149353,719.663330 
z"/>
<path fill="#F73C19" opacity="1.000000" stroke="none" 
	d="
M350.171936,717.661743 
	C349.964569,717.736084 349.616974,717.553101 349.162079,717.086914 
	C349.380463,717.003906 349.706116,717.204102 350.171936,717.661743 
z"/>
<path fill="#F73C19" opacity="1.000000" stroke="none" 
	d="
M349.115356,716.651978 
	C348.890839,716.726074 348.566650,716.532776 348.165771,716.055786 
	C348.397949,715.976257 348.706787,716.180481 349.115356,716.651978 
z"/>
<path fill="#F73C19" opacity="1.000000" stroke="none" 
	d="
M348.132202,715.637329 
	C347.903046,715.718079 347.574310,715.530762 347.164062,715.060242 
	C347.399261,714.974426 347.715942,715.171753 348.132202,715.637329 
z"/>
<path fill="#F73C19" opacity="1.000000" stroke="none" 
	d="
M347.128387,714.641785 
	C346.900543,714.718872 346.574524,714.526123 346.171692,714.048340 
	C346.406647,713.966125 346.718414,714.169006 347.128387,714.641785 
z"/>
<path fill="#F73C19" opacity="1.000000" stroke="none" 
	d="
M346.153442,713.621704 
	C345.915680,713.705933 345.584290,713.516052 345.181946,713.036377 
	C345.427277,712.946838 345.743561,713.147278 346.153442,713.621704 
z"/>
<path fill="#F73C19" opacity="1.000000" stroke="none" 
	d="
M345.169922,712.604614 
	C344.926239,712.695129 344.590942,712.510010 344.184479,712.033569 
	C344.434967,711.937805 344.756622,712.133423 345.169922,712.604614 
z"/>
<path fill="#F73C19" opacity="1.000000" stroke="none" 
	d="
M344.127686,711.610962 
	C343.869781,711.650818 343.540527,711.356079 343.125336,710.726379 
	C343.378387,710.686462 343.717346,710.981445 344.127686,711.610962 
z"/>
<path fill="#F73C19" opacity="1.000000" stroke="none" 
	d="
M293.049255,640.690918 
	C292.822327,640.760376 292.522736,640.559814 292.138672,640.091797 
	C292.361694,640.023193 292.669159,640.222107 293.049255,640.690918 
z"/>
<path fill="#F73C19" opacity="1.000000" stroke="none" 
	d="
M276.475952,473.213806 
	C276.344635,472.942169 276.495331,472.596008 276.928894,472.161255 
	C277.060486,472.428223 276.909241,472.783752 276.475952,473.213806 
z"/>
<path fill="#F73C19" opacity="1.000000" stroke="none" 
	d="
M251.668671,388.916138 
	C251.734726,389.150604 251.518509,389.451233 251.013092,389.789978 
	C250.944702,389.546173 251.165543,389.264221 251.668671,388.916138 
z"/>
<path fill="#F73C19" opacity="1.000000" stroke="none" 
	d="
M527.340698,383.103455 
	C527.261292,382.882141 527.445312,382.558472 527.903564,382.145386 
	C527.986572,382.371002 527.795410,382.686066 527.340698,383.103455 
z"/>
<path fill="#F73C19" opacity="1.000000" stroke="none" 
	d="
M424.154877,322.857544 
	C423.857788,322.787506 423.708313,322.572632 423.558838,322.357758 
	C423.693848,322.310669 423.828827,322.263580 424.183258,322.263947 
	C424.402679,322.311432 424.302490,322.712738 424.154877,322.857544 
z"/>
<path fill="#F73C19" opacity="1.000000" stroke="none" 
	d="
M419.102020,244.662018 
	C418.880432,244.734039 418.559418,244.540512 418.158264,244.066620 
	C418.386292,243.989655 418.694458,244.193039 419.102020,244.662018 
z"/>
<path fill="#F73C19" opacity="1.000000" stroke="none" 
	d="
M420.066010,245.686264 
	C419.855286,245.749176 419.545349,245.550415 419.149292,245.079224 
	C419.364380,245.012741 419.665588,245.218658 420.066010,245.686264 
z"/>
<path fill="#F95834" opacity="1.000000" stroke="none" 
	d="
M391.449097,756.440186 
	C391.517120,756.399658 391.381104,756.480774 391.449097,756.440186 
z"/>
</svg>